<svg xmlns="http://www.w3.org/2000/svg" version="1.1" xmlns:xlink="http://www.w3.org/1999/xlink" xmlns:svgjs="http://svgjs.dev/svgjs" width="1000" height="1125" viewBox="0 0 1000 1125"><g transform="matrix(1,0,0,1,1.7053025658242404e-13,0)"><svg viewBox="0 0 320 360" data-background-color="#ffffff" preserveAspectRatio="xMidYMid meet" height="1125" width="1000" xmlns="http://www.w3.org/2000/svg" xmlns:xlink="http://www.w3.org/1999/xlink"><g id="tight-bounds" transform="matrix(1,0,0,1,0,0)"><svg viewBox="0 0 320 360" height="360" width="320"><g><svg></svg></g><g><svg viewBox="0 0 320 360" height="360" width="320"><g><path xmlns="http://www.w3.org/2000/svg" d="M20.961 227.22l3.726 4.658-1.863-6.056c-0.466-2.795-3.726 0.466-1.863 1.398M25.153 224.425c1.397 2.329 2.795 4.658 2.795 6.987 0 3.261 2.795 4.658 5.123 5.589-3.261-3.726-5.124-13.974-7.918-12.576M204.017 26.929c7.918 0 15.371-0.932 23.756 0.931 20.495 5.124 37.729 15.371 49.374 29.811l32.606 52.169c1.397 13.042 4.192 27.482 3.726 43.319 3.261 0 2.795-4.658 6.521-5.59-3.726 9.316-5.59 20.961-6.521 34.469-2.329-7.453 0-18.632 0.466-24.687-3.261 5.124-5.124 1.397-5.124-0.932 0.466-3.726-1.397-3.261-2.795-4.658-5.124-4.658-8.384-9.782-12.11-17.7 2.329-6.055 2.795-14.905-4.658-19.563-2.329-1.397-5.124-3.726-6.521-7.453-1.863-5.124-5.124-11.179-4.193-19.097 0.466-2.329-6.987 5.124-11.179 1.863-18.166-12.576-36.332-27.016-58.224-39.127-11.645 0-20.029-4.192-24.221-9.316-3.726-4.658-0.932-10.713 4.658-11.179 3.261 0 6.987-0.932 9.782 0.932 0.466-1.863 2.329-4.192 4.657-4.192M157.904 16.215l0.932 0.466c4.658 0.932 6.987 7.453 12.11 5.124 0 3.261 0.466 6.521-0.466 8.85-1.397 3.726-5.59 3.726-8.85 3.726-31.208-1.863-49.374 11.179-68.471 22.358-5.124 3.261-10.713 5.59-14.906 9.782-20.029 18.632-41.921 35.866-47.045 70.335l-4.192 38.195c-0.466 4.192-5.124 8.384-4.192 13.508l3.26 22.824c-3.261-3.261-5.124 0.932-4.192 2.795 0.466 1.397 2.329 6.055 5.124 1.863 3.726 6.987 7.453 20.495 12.576 26.55 15.837 18.632 36.332 35.4 53.101 52.169 4.192-0.932 7.453-0.932 8.384-3.727 1.397 2.795-1.397 5.59-3.726 6.056 7.453 4.658 15.837 8.85 27.016 9.781 14.44 0.932 27.948 3.261 40.524 6.522 6.521-1.863 13.042-2.795 20.029-3.261 2.329 0 3.726-3.726 6.521-4.658l0.466-4.658c2.795 4.192 2.329-1.397 0.466-4.192 3.261 2.795 4.192 5.124 5.589 6.987 0-1.397 3.726-6.521 3.727-0.466l0.931-6.055c1.397-0.932 1.863 5.124 3.261 0.931 1.397-4.192 4.192-0.932 6.987-2.329-0.932 1.863-0.466 5.59 2.794 3.261l3.727-3.261c2.329 5.59 6.055 3.261 7.918 2.329 20.495-13.042 40.99-28.413 60.553-43.784l-0.466 6.055 2.329-7.453c2.329 2.329 4.192 0.466 5.124-0.931 2.795-4.658 6.521-9.316 12.577-13.508-7.453 20.029-16.303 35.866-27.482 48.908l-4.658 5.59c0 3.261-0.932 7.453-4.658 7.918-1.863 0.466-5.59-0.932-8.384 1.863-1.397 1.863 3.261 5.59-0.466 2.795-3.261-2.329-6.521 0-10.248 0.932-2.795 0.932 1.863 3.726 2.795 5.589 0.932 1.863 1.863 3.726 1.398 6.056l-5.124-5.59c-6.055 3.261-9.782 9.316-14.906 13.974-2.329 1.863-1.397 5.124-1.397 7.918-3.261 0-6.987-0.932-8.85 0.932-1.397 1.863-0.932 4.658-0.932 7.453-4.658-0.466-5.124-7.453-9.315-6.056-4.192 0.932-8.85 1.397-12.577 3.727 2.795 5.59-4.658 2.329-3.726 3.26-6.987-4.192-13.042-7.453-20.495-4.658-15.837-5.124-35.4-2.795-49.84-0.931 0-2.329 0.466-4.658-0.466-5.124-0.932 2.329-3.726 1.397-3.26 1.397-8.85-6.055-17.7-9.782-27.016-14.905-8.384 0.932-16.303-3.261-18.632-5.59-6.521-6.055-13.974-2.795-20.029-4.192-13.042-3.261-17.7-16.769-19.098-26.084-0.932-4.658-4.658-6.521-6.055-6.056-6.055-19.563-15.371-37.263-22.824-55.429-1.863-4.658-1.397-9.316-1.397-14.44 2.329 0.932 4.658 0.466 4.192-2.794-2.329-15.371-7.918-27.016-13.974-38.195 3.261-15.837 3.726-34.469 11.179-48.443 6.521-12.576 18.632-19.098 27.016-29.811 2.795-3.726 2.795-8.85 5.59-12.11 9.316-9.316 18.632-19.098 28.879-27.482 4.658-3.726 10.247 0 17.234-1.397 2.329-8.384 11.645-15.837 20.495-13.508 3.726 0.932 11.179-8.85 13.508-9.782 3.726-1.397 1.863 3.726 1.863 6.987 8.85-6.987 20.961-10.713 32.14-14.906" fill="#755bb4" fill-rule="nonzero" stroke="none" stroke-width="1" stroke-linecap="butt" stroke-linejoin="miter" stroke-miterlimit="10" stroke-dasharray="" stroke-dashoffset="0" font-family="none" font-weight="none" font-size="none" text-anchor="none" style="mix-blend-mode: normal" data-fill-palette-color="tertiary"></path></g><g transform="matrix(1,0,0,1,64,169.43150046598322)"><svg viewBox="0 0 192 21.13699906803355" height="21.13699906803355" width="192"><g><svg viewBox="0 0 192 21.13699906803355" height="21.13699906803355" width="192"><g><svg viewBox="0 0 192 21.13699906803355" height="21.13699906803355" width="192"><g><svg viewBox="0 0 192 21.13699906803355" height="21.13699906803355" width="192"><g id="textblocktransform"><svg viewBox="0 0 192 21.13699906803355" height="21.13699906803355" width="192" id="textblock"><g><svg viewBox="0 0 192 21.13699906803355" height="21.13699906803355" width="192"><g transform="matrix(1,0,0,1,0,0)"><svg width="192" viewBox="5.400000095367432 -36.5 429.1700134277344 47.25" height="21.13699906803355" data-palette-color="#755bb4"><path d="M26-33L31.25-33 16.85-18.25 16.25-17.6 7.4-8.55 7.4-13.95 26-33ZM5.4-33L9.4-33 9.4 0 5.4 0 5.4-33ZM13.95-18.55L17.25-20.8 31.4 0 26.6 0 13.95-18.55ZM53.7-25L58-25 46.25 4.2Q45.3 6.65 44.17 8.08 43.05 9.5 41.67 10.13 40.3 10.75 38.5 10.75L38.5 10.75Q36.8 10.75 35.37 10.28 33.95 9.8 32.85 9L32.85 9 33.95 5.5Q34.95 6.4 36.07 6.83 37.2 7.25 38.3 7.25L38.3 7.25Q39.6 7.25 40.75 6.45 41.9 5.65 42.85 3.2L42.85 3.2 44.15-0.05 41.65-6 33.7-25 38.25-25 44.5-8.7 46.05-4.25 47.85-9.2 53.7-25ZM63.05-36.5L67.05-36.5 67.05-6.35Q67.05-4.45 67.75-3.73 68.45-3 70-3L70-3Q71-3 71.65-3.15 72.3-3.3 73.4-3.7L73.4-3.7 72.75-0.2Q71.95 0.15 71 0.33 70.05 0.5 69.05 0.5L69.05 0.5Q66 0.5 64.52-1.15 63.05-2.8 63.05-6.2L63.05-6.2 63.05-36.5ZM88.99 0.5L88.99 0.5Q85.44 0.5 82.67-1.05 79.89-2.6 78.34-5.53 76.79-8.45 76.79-12.5L76.79-12.5Q76.79-16.55 78.34-19.48 79.89-22.4 82.59-23.95 85.29-25.5 88.74-25.5L88.74-25.5Q92.24-25.5 94.72-24 97.19-22.5 98.49-19.93 99.79-17.35 99.79-14.15L99.79-14.15Q99.79-13.3 99.74-12.6 99.69-11.9 99.59-11.35L99.59-11.35 79.39-11.35 79.39-14.9 97.84-14.9 95.79-14.5Q95.79-18.1 93.82-20.05 91.84-22 88.64-22L88.64-22Q86.19-22 84.42-20.88 82.64-19.75 81.67-17.63 80.69-15.5 80.69-12.5L80.69-12.5Q80.69-9.55 81.69-7.4 82.69-5.25 84.52-4.13 86.34-3 88.89-3L88.89-3Q91.64-3 93.37-4.05 95.09-5.1 96.14-6.9L96.14-6.9 99.29-5.05Q98.34-3.35 96.87-2.1 95.39-0.85 93.42-0.18 91.44 0.5 88.99 0.5ZM136.29 0L131.34 0 121.59-33 125.74-33 133.89-3.65 141.64-33 146.19-33 153.94-3.55 162.09-33 166.04-33 156.34 0 151.39 0 145.54-21.4 143.84-28.85 143.79-28.85 142.09-21.4 136.29 0ZM182.94 0.5L182.94 0.5Q179.39 0.5 176.61-1.05 173.84-2.6 172.28-5.53 170.74-8.45 170.74-12.5L170.74-12.5Q170.74-16.55 172.28-19.48 173.84-22.4 176.53-23.95 179.24-25.5 182.69-25.5L182.69-25.5Q186.19-25.5 188.66-24 191.14-22.5 192.44-19.93 193.74-17.35 193.74-14.15L193.74-14.15Q193.74-13.3 193.69-12.6 193.64-11.9 193.54-11.35L193.54-11.35 173.34-11.35 173.34-14.9 191.79-14.9 189.74-14.5Q189.74-18.1 187.76-20.05 185.78-22 182.59-22L182.59-22Q180.14-22 178.36-20.88 176.59-19.75 175.61-17.63 174.64-15.5 174.64-12.5L174.64-12.5Q174.64-9.55 175.64-7.4 176.64-5.25 178.46-4.13 180.28-3 182.84-3L182.84-3Q185.59-3 187.31-4.05 189.04-5.1 190.09-6.9L190.09-6.9 193.24-5.05Q192.29-3.35 190.81-2.1 189.34-0.85 187.36-0.18 185.39 0.5 182.94 0.5ZM203.33-29.8L203.33-29.8Q201.98-29.8 201.16-30.63 200.33-31.45 200.33-32.8L200.33-32.8Q200.33-34.15 201.16-34.98 201.98-35.8 203.33-35.8L203.33-35.8Q204.68-35.8 205.51-34.98 206.33-34.15 206.33-32.8L206.33-32.8Q206.33-31.45 205.51-30.63 204.68-29.8 203.33-29.8ZM201.33-25L205.33-25 205.33 0 201.33 0 201.33-25ZM224.38 0.5L224.38 0.5Q221.28 0.5 218.68-1.05 216.08-2.6 214.53-5.53 212.98-8.45 212.98-12.5L212.98-12.5Q212.98-16.65 214.63-19.55 216.28-22.45 218.98-23.98 221.68-25.5 224.78-25.5L224.78-25.5Q227.88-25.5 230.16-23.9 232.43-22.3 233.18-19.65L233.18-19.65 232.68-19.3 232.68-36.5 236.68-36.5 236.68 0 233.18 0 232.83-6.05 233.38-6.35Q233.03-4.15 231.71-2.63 230.38-1.1 228.46-0.3 226.53 0.5 224.38 0.5ZM224.78-3L224.78-3Q227.18-3 228.96-4.2 230.73-5.4 231.71-7.63 232.68-9.85 232.68-12.85L232.68-12.85Q232.68-15.7 231.71-17.75 230.73-19.8 229.01-20.9 227.28-22 224.98-22L224.98-22Q221.18-22 219.08-19.4 216.98-16.8 216.98-12.5L216.98-12.5Q216.98-8.2 219.03-5.6 221.08-3 224.78-3ZM256.43 0.5L256.43 0.5Q252.88 0.5 250.1-1.05 247.33-2.6 245.78-5.53 244.23-8.45 244.23-12.5L244.23-12.5Q244.23-16.55 245.78-19.48 247.33-22.4 250.03-23.95 252.73-25.5 256.18-25.5L256.18-25.5Q259.68-25.5 262.15-24 264.63-22.5 265.93-19.93 267.23-17.35 267.23-14.15L267.23-14.15Q267.23-13.3 267.18-12.6 267.13-11.9 267.03-11.35L267.03-11.35 246.83-11.35 246.83-14.9 265.28-14.9 263.23-14.5Q263.23-18.1 261.25-20.05 259.28-22 256.08-22L256.08-22Q253.63-22 251.85-20.88 250.08-19.75 249.1-17.63 248.13-15.5 248.13-12.5L248.13-12.5Q248.13-9.55 249.13-7.4 250.13-5.25 251.95-4.13 253.78-3 256.33-3L256.33-3Q259.08-3 260.8-4.05 262.53-5.1 263.58-6.9L263.58-6.9 266.73-5.05Q265.78-3.35 264.3-2.1 262.83-0.85 260.85-0.18 258.88 0.5 256.43 0.5ZM278.82 0L274.82 0 274.82-25 278.32-25 278.68-19.4 278.03-19.95Q278.82-21.95 280.18-23.18 281.53-24.4 283.3-24.95 285.07-25.5 286.98-25.5L286.98-25.5Q289.68-25.5 291.88-24.48 294.07-23.45 295.4-21.35 296.73-19.25 296.73-16L296.73-16 296.73 0 292.73 0 292.73-14.6Q292.73-18.75 290.95-20.38 289.18-22 286.57-22L286.57-22Q284.78-22 282.98-21.15 281.18-20.3 280-18.4 278.82-16.5 278.82-13.3L278.82-13.3 278.82 0ZM309.77 0L305.77 0 305.77-25 309.27-25 309.52-21.1Q310.87-23.4 313.05-24.45 315.22-25.5 317.52-25.5L317.52-25.5Q320.17-25.5 322.52-24.3 324.87-23.1 326.12-20.6L326.12-20.6Q326.92-22.3 328.37-23.38 329.82-24.45 331.55-24.98 333.27-25.5 334.82-25.5L334.82-25.5Q337.22-25.5 339.4-24.5 341.57-23.5 342.97-21.4 344.37-19.3 344.37-16L344.37-16 344.37 0 340.37 0 340.37-15.6Q340.37-19 338.67-20.5 336.97-22 334.47-22L334.47-22Q332.52-22 330.82-21.05 329.12-20.1 328.1-18.25 327.07-16.4 327.07-13.7L327.07-13.7 327.07 0 323.07 0 323.07-15.6Q323.07-19 321.37-20.5 319.67-22 317.17-22L317.17-22Q315.52-22 313.8-21.13 312.07-20.25 310.92-18.35 309.77-16.45 309.77-13.35L309.77-13.35 309.77 0ZM368.02-9.25L368.02-16.15Q368.02-18.95 366.52-20.48 365.02-22 362.27-22L362.27-22Q359.67-22 357.87-20.88 356.07-19.75 355.22-17.25L355.22-17.25 351.97-19.25Q352.97-22.05 355.67-23.78 358.37-25.5 362.37-25.5L362.37-25.5Q365.07-25.5 367.27-24.58 369.47-23.65 370.75-21.78 372.02-19.9 372.02-16.95L372.02-16.95 372.02-4.85Q372.02-3.05 373.92-3.05L373.92-3.05Q374.87-3.05 375.77-3.3L375.77-3.3 375.57-0.15Q374.57 0.35 372.97 0.35L372.97 0.35Q371.52 0.35 370.37-0.2 369.22-0.75 368.57-1.88 367.92-3 367.92-4.7L367.92-4.7 367.92-5.2 368.92-5.05Q368.32-3.1 366.87-1.88 365.42-0.65 363.62-0.08 361.82 0.5 360.07 0.5L360.07 0.5Q357.87 0.5 355.97-0.25 354.07-1 352.95-2.53 351.82-4.05 351.82-6.3L351.82-6.3Q351.82-9.1 353.7-10.93 355.57-12.75 358.92-13.4L358.92-13.4 368.82-15.35 368.82-12.05 360.77-10.4Q358.32-9.9 357.12-9 355.92-8.1 355.92-6.5L355.92-6.5Q355.92-4.95 357.15-3.98 358.37-3 360.62-3L360.62-3Q362.07-3 363.4-3.38 364.72-3.75 365.77-4.53 366.82-5.3 367.42-6.48 368.02-7.65 368.02-9.25L368.02-9.25ZM385.72 0L381.72 0 381.72-25 385.22-25 385.57-19.4 384.92-19.95Q385.72-21.95 387.07-23.18 388.42-24.4 390.19-24.95 391.97-25.5 393.87-25.5L393.87-25.5Q396.57-25.5 398.77-24.48 400.97-23.45 402.29-21.35 403.62-19.25 403.62-16L403.62-16 403.62 0 399.62 0 399.62-14.6Q399.62-18.75 397.84-20.38 396.07-22 393.47-22L393.47-22Q391.67-22 389.87-21.15 388.07-20.3 386.89-18.4 385.72-16.5 385.72-13.3L385.72-13.3 385.72 0ZM416.67 0L412.67 0 412.67-25 416.17-25 416.52-19.4 415.87-19.95Q416.67-21.95 418.02-23.18 419.37-24.4 421.14-24.95 422.92-25.5 424.82-25.5L424.82-25.5Q427.52-25.5 429.72-24.48 431.92-23.45 433.24-21.35 434.57-19.25 434.57-16L434.57-16 434.57 0 430.57 0 430.57-14.6Q430.57-18.75 428.79-20.38 427.02-22 424.42-22L424.42-22Q422.62-22 420.82-21.15 419.02-20.3 417.84-18.4 416.67-16.5 416.67-13.3L416.67-13.3 416.67 0Z" opacity="1" transform="matrix(1,0,0,1,0,0)" fill="#755bb4" class="wordmark-text-0" data-fill-palette-color="primary" id="text-0"></path></svg></g></svg></g></svg></g></svg></g><g></g></svg></g></svg></g></svg></g></svg></g><defs></defs></svg><rect width="320" height="360" fill="none" stroke="none" visibility="hidden"></rect></g></svg></g></svg>